<?xml version="1.0" encoding="utf-8"?><svg viewBox="0 0 45 45" xmlns="http://www.w3.org/2000/svg" xmlns:xlink="http://www.w3.org/1999/xlink"><style>:root>svg{display:none}:root>svg:target{display:block}</style><svg viewBox="0 0 41.282 44.938" id="analyse" xmlns="http://www.w3.org/2000/svg"><defs><style>.acls-1{fill:#ffe600;fill-rule:evenodd}</style></defs><path id="aIcon" class="acls-1" d="M178.055 824.3l-13.084-23.127.029-9.368h.73a1.4 1.4 0 000-2.808h-13.867a1.4 1.4 0 000 2.808h1.1l.037 9.367-13.458 23.128c-3.14 5.3-.716 9.633 5.386 9.633h27.739c6.1 0 8.527-4.335 5.388-9.633m-30.97-7.343l8.907-15.011v-9.952h6.017v9.952l8.441 15.011h-23.365z" transform="translate(-138.156 -789)"/></svg><svg viewBox="0 0 45 35.938" id="deliver" xmlns="http://www.w3.org/2000/svg"><defs><style>.bcls-1{fill:#ffe600;fill-rule:evenodd}</style></defs><path id="bIcon" class="bcls-1" d="M1181.01 816.035l-5.96-11.046-8.05.033v-5.267a3.1 3.1 0 00-3.13-2.765h-25.14a2.767 2.767 0 00-2.7 2.828l-.03 22.061 2.61 2.109 3.88.031a8.3 8.3 0 00-.97 3.391 5.59 5.59 0 0011.18 0 8.19 8.19 0 00-.59-3.422l15.46.031a8.082 8.082 0 00-.9 3.391 5.585 5.585 0 0011.17 0 8.159 8.159 0 00-.81-3.391l3.98-.031v-7.953zm-13.94-1.047l-.03-6.929 5.01-.062 3.9 6.991h-8.88z" transform="translate(-1136 -797)"/></svg><svg viewBox="0 0 41.09 40.031" id="developing" xmlns="http://www.w3.org/2000/svg"><defs><style>.ccls-1{fill:#fff;fill-rule:evenodd}</style></defs><path id="cIcon" class="ccls-1" d="M1130.04 364.751v-7.359l-6.24-1.112a13.653 13.653 0 00-.86-2.053l3.44-4.732-5.4-5.315-4.81 3.375a15.267 15.267 0 00-2.09-.855l-.97-5.727h-7.64l-.97 5.726a14.891 14.891 0 00-2.1.855l-4.8-3.374-5.4 5.313 3.43 4.732a16.064 16.064 0 00-.86 2.055l-5.83.956v7.515l5.85.959a13.47 13.47 0 00.86 2.033l-3.45 4.749 5.4 5.315 4.83-3.4a15.723 15.723 0 002.06.838l.98 5.765h7.64l.97-5.767a15.318 15.318 0 002.06-.838l4.84 3.4 5.4-5.313-3.45-4.749a14.514 14.514 0 00.86-2.036zM1109.29 366a5.005 5.005 0 115.09-5 5.048 5.048 0 01-5.09 5" transform="translate(-1088.94 -340.969)"/></svg><svg viewBox="0 0 42.531 45" id="finalyse" xmlns="http://www.w3.org/2000/svg"><defs><style>.dcls-1{fill:#ffe600;fill-rule:evenodd}</style></defs><path id="dIcon" class="dcls-1" d="M778.143 814.872a8.687 8.687 0 013.106-11.714l-4.332-7.66a8.167 8.167 0 01-4.212 1.166 8.5 8.5 0 01-8.383-8.614h-8.663a8.619 8.619 0 01-1.118 4.319 8.316 8.316 0 01-11.489 3.109l-4.333 7.662a8.385 8.385 0 013.093 3.139 8.686 8.686 0 01-3.087 11.7l4.333 7.661a8.175 8.175 0 014.193-1.154 8.5 8.5 0 018.382 8.568h8.667a8.608 8.608 0 011.119-4.275 8.311 8.311 0 0111.466-3.118l4.332-7.661a8.374 8.374 0 01-3.074-3.128m-18.16 4.793a9.113 9.113 0 118.927-9.112 9.019 9.019 0 01-8.927 9.112" transform="translate(-738.719 -788.063)"/></svg><svg viewBox="0 0 38.375 38.406" id="graphic-design" xmlns="http://www.w3.org/2000/svg"><defs><style>.ecls-1{fill:#fff;fill-rule:evenodd}</style></defs><path id="eIcon" class="ecls-1" d="M526.328 353.772l-8.4-8.4 2.4-2.4 8.4 8.4zm-2.4 2.4l-1.2 13.2c-10.8 0-26.4 12-26.4 12l-1.993-1.992 10.265-10.264a3.557 3.557 0 001.329.255 3.6 3.6 0 10-3.346-2.27l-10.261 10.263-1.993-1.992s12-15.6 12-26.4l13.2-1.2z" transform="translate(-490.344 -342.969)"/></svg><svg viewBox="0 0 38.906 31.032" id="photography" xmlns="http://www.w3.org/2000/svg"><defs><style>.fcls-1{fill:#fff;fill-rule:evenodd}</style></defs><path id="fIcon" class="fcls-1" d="M802.607 362.941a7.908 7.908 0 107.907-7.761 7.837 7.837 0 00-7.907 7.761m24.937-13.135h-8.515c-.608-2.389-1.216-4.777-3.649-4.777h-9.731c-2.433 0-3.042 2.388-3.649 4.777h-8.516a2.418 2.418 0 00-2.432 2.388v21.5a2.419 2.419 0 002.432 2.388h34.06a2.42 2.42 0 002.433-2.388v-21.5a2.419 2.419 0 00-2.433-2.388m-17.03 23.733a10.6 10.6 0 1110.8-10.6 10.7 10.7 0 01-10.8 10.6M827.982 357l-4.991.031v-2.076l4.991.032V357z" transform="translate(-791.063 -345.031)"/></svg><svg viewBox="0 0 43.093 43.969" id="preparing" xmlns="http://www.w3.org/2000/svg"><defs><style>.gcls-1{fill:#ffe600;fill-rule:evenodd}</style></defs><path id="gIcon" class="gcls-1" d="M376.086 788.993l2.89 24.544-3.244.382L373.149 792h-27.367l-2.582 21.919-3.244-.382 2.891-24.544h33.24zM349 793.952h20.97l.042 3.037-21.012.084v-3.121zm.024 6.035h21.016l-.031 3.029-21.016-.032zm0 6h20.985v3.03l-21.016.031zm-.062 5h21.047l.031 3.061-21.047-.031zm30.9 6.059l-41.032-.063a1.057 1.057 0 00-.784 1.555l4.477 13.131a2.044 2.044 0 001.811 1.3H374.6a2.046 2.046 0 001.812-1.3l4.54-13.258a1.057 1.057 0 00-1-1.428m-14.949 5h-11.04l.031-3h10.976z" transform="translate(-337.938 -789)"/></svg><svg viewBox="0 0 38.656 41.032" id="testing" xmlns="http://www.w3.org/2000/svg"><defs><style>.hcls-1{fill:#ffe600;fill-rule:evenodd}</style></defs><path id="hIcon" class="hcls-1" d="M954.751 797.5a5.471 5.471 0 105.471-5.469 5.472 5.472 0 00-5.471 5.469m11.6 4.809a5.471 5.471 0 105.471-5.47 5.47 5.47 0 00-5.471 5.47m7.543 11.6a2.735 2.735 0 102.734-2.735 2.736 2.736 0 00-2.734 2.735m-4.807 11.6a2.735 2.735 0 102.735-2.735 2.734 2.734 0 00-2.735 2.735m-11.605 4.807a2.735 2.735 0 102.736-2.734 2.738 2.738 0 00-2.736 2.734m-11.6-4.807a2.736 2.736 0 102.735-2.735 2.734 2.734 0 00-2.735 2.735m-1.368-23.206a4.1 4.1 0 104.1-4.1 4.1 4.1 0 00-4.1 4.1m-3.781 11.6a3.077 3.077 0 103.077-3.077 3.077 3.077 0 00-3.077 3.077" transform="translate(-940.719 -792.031)"/></svg><svg viewBox="0 0 38.844 35.344" id="web-design" xmlns="http://www.w3.org/2000/svg"><defs><filter id="ifilter" x="187.281" y="346.031" width="38.844" height="35.344" filterUnits="userSpaceOnUse"><feFlood result="flood" flood-color="#fff"/><feComposite result="composite" operator="in" in2="SourceGraphic"/><feBlend result="blend" in2="SourceGraphic"/></filter><style>.icls-1{fill:#fff;fill-rule:evenodd;filter:url(#ifilter)}</style></defs><path id="iIcon" class="icls-1" d="M193.034 346.037L191.978 352h26.462l-1.066 5h-26.483l-1.268 5.921 26.743.044-1.769 7.953-10.666 3.534-9.245-3.534.459-2.954h-6.634l-1.239 7.543 15.288 5.85 17.626-5.85 5.947-29.475h-33.1z" transform="translate(-187.281 -346.031)"/></svg><svg viewBox="0 0 44.094 41.907" id="working" xmlns="http://www.w3.org/2000/svg"><defs><style>.jcls-1{fill:#ffe600;fill-rule:evenodd}</style></defs><path id="jIcon" class="jcls-1" d="M577.356 824.537l-12.985-12.983a2.071 2.071 0 00-2.922 0l-.974.974-7.922-7.923 13.371-13.575h-13.737l-6.523 6.686-.575-.761-3.077.031.031 2.953.7.7-8.872 8.874 6.889 6.89 8.872-8.873 7.923 7.922-.974.974a2.071 2.071 0 000 2.923l12.982 12.983a2.073 2.073 0 002.922 0l4.87-4.87a2.068 2.068 0 000-2.923" transform="translate(-533.875 -791.031)"/></svg></svg>