<svg xmlns="http://www.w3.org/2000/svg" width="45" height="35.938" viewBox="0 0 45 35.938">
  <defs>
    <style>
      .cls-1 {
        fill: #ffe600;
        fill-rule: evenodd;
      }
    </style>
  </defs>
  <path id="Icon" class="cls-1" d="M1181.01,816.035l-5.96-11.046-8.05.033v-5.267a3.1,3.1,0,0,0-3.13-2.765h-25.14a2.767,2.767,0,0,0-2.7,2.828L1136,821.879l2.61,2.109,3.88,0.031a8.3,8.3,0,0,0-.97,3.391,5.59,5.59,0,0,0,11.18,0,8.19,8.19,0,0,0-.59-3.422l15.46,0.031a8.082,8.082,0,0,0-.9,3.391,5.585,5.585,0,0,0,11.17,0,8.159,8.159,0,0,0-.81-3.391l3.98-.031v-7.953Zm-13.94-1.047-0.03-6.929,5.01-.062,3.9,6.991h-8.88Z" transform="translate(-1136 -797)"/>
</svg>
