<svg xmlns="http://www.w3.org/2000/svg" width="41.09" height="40.031" viewBox="0 0 41.09 40.031">
  <defs>
    <style>
      .cls-1 {
        fill: #fff;
        fill-rule: evenodd;
      }
    </style>
  </defs>
  <path id="Icon" class="cls-1" d="M1130.04,364.751v-7.359l-6.24-1.112a13.653,13.653,0,0,0-.86-2.053l3.44-4.732-5.4-5.315-4.81,3.375a15.267,15.267,0,0,0-2.09-.855l-0.97-5.727h-7.64l-0.97,5.726a14.891,14.891,0,0,0-2.1.855l-4.8-3.374-5.4,5.313,3.43,4.732a16.064,16.064,0,0,0-.86,2.055l-5.83.956v7.515l5.85,0.959a13.47,13.47,0,0,0,.86,2.033l-3.45,4.749,5.4,5.315,4.83-3.4a15.723,15.723,0,0,0,2.06.838l0.98,5.765h7.64l0.97-5.767a15.318,15.318,0,0,0,2.06-.838l4.84,3.4,5.4-5.313-3.45-4.749a14.514,14.514,0,0,0,.86-2.036ZM1109.29,366a5.005,5.005,0,1,1,5.09-5,5.048,5.048,0,0,1-5.09,5" transform="translate(-1088.94 -340.969)"/>
</svg>
