<svg xmlns="http://www.w3.org/2000/svg" width="42.531" height="45" viewBox="0 0 42.531 45">
  <defs>
    <style>
      .cls-1 {
        fill: #ffe600;
        fill-rule: evenodd;
      }
    </style>
  </defs>
  <path id="Icon" class="cls-1" d="M778.143,814.872a8.687,8.687,0,0,1,3.106-11.714l-4.332-7.66a8.167,8.167,0,0,1-4.212,1.166,8.5,8.5,0,0,1-8.383-8.614h-8.663a8.619,8.619,0,0,1-1.118,4.319,8.316,8.316,0,0,1-11.489,3.109l-4.333,7.662a8.385,8.385,0,0,1,3.093,3.139,8.686,8.686,0,0,1-3.087,11.7l4.333,7.661a8.175,8.175,0,0,1,4.193-1.154,8.5,8.5,0,0,1,8.382,8.568H764.3a8.608,8.608,0,0,1,1.119-4.275,8.311,8.311,0,0,1,11.466-3.118L781.217,818a8.374,8.374,0,0,1-3.074-3.128m-18.16,4.793a9.113,9.113,0,1,1,8.927-9.112,9.019,9.019,0,0,1-8.927,9.112" transform="translate(-738.719 -788.062)"/>
</svg>
