<svg xmlns="http://www.w3.org/2000/svg" width="38.907" height="31.031" viewBox="0 0 38.907 31.031">
  <defs>
    <style>
      .cls-1 {
        fill: #fff;
        fill-rule: evenodd;
      }
    </style>
  </defs>
  <path id="Icon" class="cls-1" d="M802.607,362.941a7.908,7.908,0,1,0,7.907-7.761,7.837,7.837,0,0,0-7.907,7.761m24.937-13.135h-8.515c-0.608-2.389-1.216-4.777-3.649-4.777h-9.731c-2.433,0-3.042,2.388-3.649,4.777h-8.516a2.418,2.418,0,0,0-2.432,2.388v21.5a2.419,2.419,0,0,0,2.432,2.388h34.06a2.42,2.42,0,0,0,2.433-2.388v-21.5a2.419,2.419,0,0,0-2.433-2.388m-17.03,23.733a10.6,10.6,0,1,1,10.8-10.6,10.7,10.7,0,0,1-10.8,10.6M827.982,357l-4.991.031v-2.076l4.991,0.032V357Z" transform="translate(-791.062 -345.031)"/>
</svg>
