<svg xmlns="http://www.w3.org/2000/svg" width="43.093" height="43.969" viewBox="0 0 43.093 43.969">
  <defs>
    <style>
      .cls-1 {
        fill: #ffe600;
        fill-rule: evenodd;
      }
    </style>
  </defs>
  <path id="Icon" class="cls-1" d="M376.086,788.993l2.89,24.544-3.244.382L373.149,792H345.782L343.2,813.919l-3.244-.382,2.891-24.544h33.24ZM349,793.952h20.97l0.042,3.037L349,797.073v-3.121Zm0.024,6.035h21.016l-0.031,3.029-21.016-.032Zm0,6h20.985v3.03l-21.016.031Zm-0.062,5h21.047l0.031,3.061-21.047-.031Zm30.9,6.059-41.032-.063a1.057,1.057,0,0,0-.784,1.555l4.477,13.131a2.044,2.044,0,0,0,1.811,1.3H374.6a2.046,2.046,0,0,0,1.812-1.3l4.54-13.258a1.057,1.057,0,0,0-1-1.428m-14.949,5h-11.04l0.031-3H364.97Z" transform="translate(-337.938 -789)"/>
</svg>
