<svg xmlns="http://www.w3.org/2000/svg" width="44.094" height="41.907" viewBox="0 0 44.094 41.907">
  <defs>
    <style>
      .cls-1 {
        fill: #ffe600;
        fill-rule: evenodd;
      }
    </style>
  </defs>
  <path id="Icon" class="cls-1" d="M577.356,824.537l-12.985-12.983a2.071,2.071,0,0,0-2.922,0l-0.974.974-7.922-7.923,13.371-13.575H552.187l-6.523,6.686-0.575-.761-3.077.031,0.031,2.953,0.7,0.7-8.872,8.874,6.889,6.89,8.872-8.873,7.923,7.922-0.974.974a2.071,2.071,0,0,0,0,2.923l12.982,12.983a2.073,2.073,0,0,0,2.922,0l4.87-4.87a2.068,2.068,0,0,0,0-2.923" transform="translate(-533.875 -791.031)"/>
</svg>
